<svg xmlns="http://www.w3.org/2000/svg" width="169.635" height="154.842" viewBox="0 0 169.635 154.842">
  <g id="g8" transform="translate(-271.999 2557.327)">
    <g id="g10" transform="translate(271.999 -2557.327)">
      <path id="path12" d="M441.634-2479.906c0,42.758-37.973,77.421-84.816,77.421S272-2437.147,272-2479.906s37.975-77.421,84.818-77.421,84.816,34.663,84.816,77.421" transform="translate(-271.999 2557.327)" fill="#3972bc" fill-rule="evenodd"/>
      <path id="path14" d="M435.106-2479.341c14.866,7.584,25.156,22.086,31.527,36.063,7.11,15.6,11.5,34.137,5.508,50.648-5,13.781-15.926,25.269-29.7,32.437-15.383,8.007-32.894,10.126-50.4,9.669-19.425-.507-37.194-5.654-52.25-17.105a88.978,88.978,0,0,1-16.562-16.583c10.728,31.531,42.941,54.428,81.014,54.428,46.843,0,84.816-34.663,84.816-77.421,0-32.821-22.373-60.868-53.958-72.135" transform="translate(-319.429 2484.627)" fill="#2e5ab1" fill-rule="evenodd"/>
      <path id="path16" d="M390.554-2402.444c2.435.56,4.856,1.18,7.31,1.663,2.084.41,3.355,2.78,5.931,1.976.628-.2,1.68.243,1.714-.767.033-.991-.879-1.123-1.769-1.17-1.3-.068-2.758.525-2.853-1.76-.062-1.439-2.276-.006-3.55-.822,2.021-1.8,3.882-3.366,6.916-3.056a3.757,3.757,0,0,1,2.813,1.258c1.943,2.3,3.75,2.464,6.231.694.57-.406,1.169-1.157,1.823-.369.606.729-.36,1.128-.826,1.593a4.359,4.359,0,0,1-3.652,1.415c-1.321-.122-1.84.456-1.687,1.654.148,1.164.944,1.165,1.973,1.193,2.438.063,4.414-1.367,6.8-1.587,1.219-.113,1.785-1.288.443-2.171-.609-.4-1.06-.665-.712-1.346a1.688,1.688,0,0,1,1.609-.81c1.564-.017,3.128-.005,4.648-.005.431.9-.362,1.152-.763,1.488-.786.655-1.522,1.214-.9,2.335a2.342,2.342,0,0,0,2.543,1.126c1.414-.185.9-1.331.843-2.042-.135-1.553.957-2.147,2.2-2.5,2.933-.837,5.943-1.5,8.807.136,2.062,1.177,5.507.957,5.382,4.465-.033.847,3,.465,1.441,2.366-.9,1.1-2.2.6-3.329.767-.178.026-.451.049-.507.152-2.365,4.364-5.329.35-8.341.923,1.011-1.575,2.4-1.754,3.432-2.392.577-.354,1.584-.5,1.391-1.349a1.955,1.955,0,0,0-1.792-1.385,10.461,10.461,0,0,0-5.426.536c-1.411.683-2.353,1.948-4.192,2.25-.631.1-1.145,2-2.229,2.8-.761.559-1.458.615-1.671-.269-.429-1.8-1.576-1.167-2.725-.869-2.98.77-5.432,2.486-8.049,3.867-1.82.959-.626,2.41.15,3.489a3.726,3.726,0,0,0,2.585,1.338c2.216.279,4.252.66,3.573,3.458-.12.5.155,1,.875,1.056a1.33,1.33,0,0,0,1.5-.879c.7-2.116,2.415-3.057,4.616-3.491,1.579-.312,1.216-1.478,1.243-2.437.123-4.627,2.891-6.013,7.415-3.721a1.272,1.272,0,0,1,.771,1.677c-.67,2.233.779,2,2.275,1.6a9.041,9.041,0,0,0,1.731-.788c1.323-.678,1.917-.277,1.764,1.038-.209,1.786.5,2.959,2.23,3.936,1.756.991,1.59,2.59-.289,3.48-1.9.9-1.686,1.482.02,2.286.9.422,2.665.895,1.645,2.025-1.075,1.19-2.741-.047-4.1-.371-1.055-.25-1.528-.927-.718-1.9.441-.53,1.065-1.119.249-1.728-.659-.491-1.117.18-1.676.419-1.38.589-2.728.837-4.05-.326-1.166-1.026-2.667-1.15-3.5.26-1.071,1.812,1.645,1.29,1.946,2.106-6.044,2.122-10.427,6.286-15.176,9.97-.211.163-.521.334-.567.541-.879,3.949-5,5.083-7.738,7.405a3.987,3.987,0,0,0-1.5,3.582c.032.648,1.141,1.89-.476,1.983-.977.056-2.53-.505-2.432-1.652.228-2.667-1.676-2.268-3.332-2.165-2.9.177-5.77-.364-8.694.8-3.439,1.376-4.877,3.845-6.118,6.721a3.391,3.391,0,0,0,1.365,4.461,4.692,4.692,0,0,0,4.953.035c1.169-.67,2.281-1.425,3.448-2.1.557-.32,1.037-1.152,1.875-.443.608.514.325,1.183.027,1.641-1.472,2.26-.958,3.462,2.049,3.533.9.021,1.239.555,1.31,1.335.061.668.269,1.324.36,1.991.552,4.059.564,3.97,4.763,4.643,2,.322,3.053-.595,4.215-1.755,2.975-2.973,5.4-3.026,8.5-.169a4.189,4.189,0,0,0,5.084.463c1.994-1.2,3.2-.533,3.991.829,1.508,2.588,3.256,4.156,6.849,3.817,2.08-.2,2.41,2.021,3.1,3.419.549,1.113-.545,2.784.835,3.52a15.362,15.362,0,0,0,6.76,2.028c.646.02,1.295.042,1.939,0,2.491-.158,4.823-.115,5.889,2.558a2.328,2.328,0,0,0,1.489,1.025c2.885.671,2.437,2.72,1.129,3.753-3.8,3-3.485,7.021-4,10.872a5.1,5.1,0,0,1-5.445,4.516c-3.956.006-5.03,1.114-3.967,4.6a4.285,4.285,0,0,1-1.331,5,12.291,12.291,0,0,0-3.037,3.571c-1.66,3.55-4.969,4.76-8.628,5.538-1.5.318-2.306.772-.72,1.795,1.462.943.861,1.619.031,2.411-1.348,1.287-.775,2.212.794,2.578,1.716.4,2.135,1.178,1.376,2.524-1.026,1.817-.162,2.964,1.4,4.062.717.5,1.954,1.044,1.336,2.187-.494.915-1.5.182-2.264.284-3.922.53-5.915-2.225-7.829-4.36-2.317-2.587-4.611-5.5-3.463-9.378.315-1.062.53-2.421-.539-3.363a4.969,4.969,0,0,1-1.487-6.171c.887-1.983-1.3-3.083-1.223-4.8.105-2.438.015-4.884.019-7.327.007-4.29-1.395-6.28-5.808-7.612a3.073,3.073,0,0,1-2.558-2.5c-.51-2.1-2.553-3.424-3.988-5.027-3.185-3.559-2.727-9,1.433-11.461,2.471-1.462.744-3.179.883-4.745s-1.568-1.3-2.474-1.263c-3.454.134-5.731-1.515-7.5-3.893a6.4,6.4,0,0,0-4.031-2.369c-1.481-.338-3.433-.1-3.779-2.242-.1-.613-1.173-.634-1.7-.43-2.565.99-4.864-.291-7.236-.666-1.824-.289-3.69-3.787-3.05-5.449a1.84,1.84,0,0,0-.385-2.055c-2.006-2.589-4.371-5.03-4.577-8.442-.032-.54-.292-1.059-.972-1.006-.894.071-.757.778-.827,1.356-.26,2.177.908,3.844,2.152,5.557.7.963,2.214,2.4.742,3.289-1.639.987-2.6-.62-3.544-1.852a9.867,9.867,0,0,1-2.067-7.375c.116-1.1.127-2.208-1.377-2.7-1.932-.626-2.846-1.779-2.126-3.714.225-.607.03-1-.8-.776,4.748-11.111,12.287-20.418,21.993-28.314a50.265,50.265,0,0,1,7.145-5.131" transform="translate(-354.777 2416.649)" fill="#87d37f" fill-rule="evenodd"/>
      <path id="path18" d="M1775.731-1761.517c-1.619.213-2.522-.312-2.276-1.912a5.962,5.962,0,0,0-2.133-5.492c-1.656-1.536-1.162-3.459-1.164-5.27,0-1.39-.071-2.636-1.4-3.621a3.06,3.06,0,0,1-.663-4.739c2.561-3.14,2.076-5.874-.318-8.879-2.291-2.878-4.163-6-2.669-9.845.329-.844.107-1.648-1.223-1.786a11.712,11.712,0,0,1-5.884-1.793,4.373,4.373,0,0,0-4,.008c-3.343,1.639-7.042.659-10.483,1.421a1.187,1.187,0,0,1-.81-.08c-3.149-2.123-5.42-5.016-7.8-7.765-1.374-1.586-.463-3.751-.557-5.656-.038-.74.794-1.109,1.09-1.677.468-.9,1.646-1.863-.454-2.76-1.443-.617-1.747-2.071-.024-3.175,1.509-.965,2.9-2.095,4.468-2.97,2.31-1.291,3.931-2.616,3.72-5.541-.176-2.422,2.9-3.222,4.565-3.126,4.84.278,9.065-1.95,13.752-2.127,3.358-.125,3.564-.276,3.833,2.688a1.929,1.929,0,0,0,1.719,1.938c2.384.6,4.887.869,7.063,2.095a1.1,1.1,0,0,0,1.729-.559,3.4,3.4,0,0,1,5.04-1.313c3.156,2.6,6.764,2.185,10.417,2.108,7.465,25.619,2.372,48.91-15.53,69.828" transform="translate(-1625.229 1887.089)" fill="#87d37f" fill-rule="evenodd"/>
      <path id="path20" d="M1921.97-2248.027c-5.238.1-5.546-.05-6.609-4.362-.3-1.218-.842-1.048-1.7-.624a2.915,2.915,0,0,0-1.147,1.343c-.5.823-.026,2.561-1.265,2.416a3.273,3.273,0,0,1-2.745-2.859c-.011-2.506-1.78-3.7-3.528-5.037a3.412,3.412,0,0,0-1.1-.737c-1.067-.256-2.527-.6-3.119.2-.679.915.049,2.141.966,2.874a16.5,16.5,0,0,0,2.811,1.588c.843.433,1.575.788,1.1,1.927-.4.962.006,2.251-1.577,2.646-1.221.305-2.155.116-2.733-.989.519-.584,1.245-.222,1.812-.427,1.043-.379,1.29-.842.3-1.6-2-1.545-4.758-2.255-6.112-4.542-.07-.118-.512-.166-.71-.092-3.709,1.4-7.468,2.592-9.183,6.516-1.05,2.407-8.238,2.481-9.373.147a4.84,4.84,0,0,1,.119-5.105c.99-1.282,2.881-1.291,4.534-1.239a23.42,23.42,0,0,1,2.428.423,1.3,1.3,0,0,0,1.555-.739,1.275,1.275,0,0,0-.34-1.557c-1.76-2.018-1.064-3.537,1.747-3.735a3.476,3.476,0,0,0,3.146-1.707c1.355-2.663,3.658-3.26,6.582-2.879.746.1,1.883.483,2.18-.439a3.447,3.447,0,0,0-.314-2.441c-.545-1.037-1.479-.157-2.152.022-.842.223-1.42.29-1.743-.571a3.242,3.242,0,0,0-1.97-1.863c-1.76-.8-1.087-2.741,1.2-3.752,1.574-.7,3.79-.728,3.81-3.046,8.6,7.339,15.8,15.624,20.763,25.436.807,1.6,1.581,3.208,2.369,4.812" transform="translate(-1758.174 2297.189)" fill="#87d37f" fill-rule="evenodd"/>
      <path id="path22" d="M1946.612-2165.888c-.75-.152-1.985.435-2.37-.531-.342-.856.318-1.575,1.148-2.3,1.818-1.582-.435-1.961-1.278-2.688-.588-.507-1.512-.806-1.128-1.779a2,2,0,0,1,1.613-1.244c.975-.166,1.784-.176,2.07,1.018a7.062,7.062,0,0,0,3.58,5.136c.885.451.45.912.024,1.412-.944,1.1-2.285.917-3.659.972" transform="translate(-1818.818 2200.455)" fill="#87d37f" fill-rule="evenodd"/>
      <path id="path24" d="M1882.882-2121.707a2.709,2.709,0,0,1-.768-.134.931.931,0,0,1-.422-1.308c.648-1.416,1.47-2.719,3.418-2.857a1.636,1.636,0,0,1,1.806.834c.376.876-.242,1.4-.958,1.849-.967.609-1.784,1.451-3.075,1.616" transform="translate(-1762.056 2155.25)" fill="#87d37f" fill-rule="evenodd"/>
      <path id="path26" d="M1292.362-1986.774c-.038.836-.941,1.133-1.387,1.712a1.606,1.606,0,0,1-1.991.345c-.268-.123-.6-.536-.553-.758.167-.831,1.013-.552,1.576-.591.863-.061,1.16-1.547,2.356-.708" transform="translate(-1212.95 2025.686)" fill="#87d37f" fill-rule="evenodd"/>
      <path id="path28" d="M1241.416-1965.663c-.555-.078-.8-.412-.642-.866.1-.274.42-.647.674-.671.506-.05.77.342.8.794.037.523-.3.729-.833.743" transform="translate(-1168.79 2007.204)" fill="#87d37f" fill-rule="evenodd"/>
      <path id="path30" d="M1135.064-575.17c-1.564-1.1-2.427-2.244-1.4-4.061.759-1.347.341-2.123-1.376-2.524-1.569-.367-2.141-1.291-.794-2.578.831-.793,1.431-1.469-.031-2.411a4.255,4.255,0,0,1-.432-.315q-4.025-.138-7.949-.552a6,6,0,0,1-.237,1.175c-1.148,3.878,1.145,6.791,3.463,9.378,1.914,2.135,3.907,4.889,7.829,4.36.765-.1,1.771.632,2.264-.284.619-1.142-.618-1.683-1.336-2.187" transform="translate(-1059.38 721.122)" fill="#74c375" fill-rule="evenodd"/>
      <path id="path32" d="M2219.514-1772.962c-3.653.077-7.26.49-10.417-2.109a3.176,3.176,0,0,0-3.71-.115c3.953,12.569,5.3,26.093.806,38.477a54.929,54.929,0,0,1-9.812,16.719,4.637,4.637,0,0,0,.629.56c1.33.985,1.4,2.231,1.4,3.621,0,1.811-.492,3.734,1.165,5.27a5.962,5.962,0,0,1,2.132,5.492c-.245,1.6,1.1,2.459,2.722,2.247,17.9-20.918,22.55-44.544,15.084-70.163" transform="translate(-2053.482 1828.704)" fill="#74c375" fill-rule="evenodd"/>
      <path id="path34" d="M2127.63-2252.838c-4.959-9.812-12.165-18.1-20.763-25.436-.02,2.318-2.236,2.35-3.81,3.046a5.426,5.426,0,0,0-.955.542q2.081,2.659,3.927,5.459c.594-.282,1.264-.655,1.694.162a3.446,3.446,0,0,1,.314,2.441.914.914,0,0,1-.166.3,99.386,99.386,0,0,1,4.8,8.9c.111.094.221.187.332.271,1.748,1.335,3.517,2.531,3.528,5.037a3.273,3.273,0,0,0,2.744,2.859c1.24.145.76-1.593,1.265-2.416a2.913,2.913,0,0,1,1.147-1.343c.863-.425,1.4-.595,1.7.624,1.063,4.312,1.371,4.467,6.609,4.362-.788-1.6-1.562-3.214-2.369-4.812" transform="translate(-1966.203 2297.189)" fill="#74c375" fill-rule="evenodd"/>
      <path id="path36" d="M488.531-2274.848a33.289,33.289,0,0,1,5.4-9.015,53.145,53.145,0,0,1,8.966-8.8,36.888,36.888,0,0,1,5.026-3.288c.694-.374,1.394-.741,2.11-1.081.674-.321,1.586.292,1.014.947a7.814,7.814,0,0,1-.944,1.018c-.692.694-1.4,1.375-2.079,2.081q-2.2,2.3-4.384,4.608c-2.744,2.9-5.336,5.912-8.125,8.772-1.344,1.378-2.706,2.736-4.124,4.052-.523.485-1.06.963-1.629,1.4s-1.465-.013-1.228-.7" transform="translate(-472.416 2314.755)" fill="#b7e4ac"/>
      <path id="path38" d="M413.023-1927.358c-.174,0,.254-1.789.316-1.949a7.889,7.889,0,0,1,1.543-2.37c.464-.51,3.038-2.843,3.2-.877a6.631,6.631,0,0,1-1.833,4.249,6.025,6.025,0,0,1-1.936,1.565.9.9,0,0,1-1.288-.619h0" transform="translate(-402.513 1975.624)" fill="#b7e4ac"/>
    </g>
  </g>
</svg>
