<svg id="g10" xmlns="http://www.w3.org/2000/svg" width="811.83" height="758.843" viewBox="0 0 811.83 758.843">
  <path id="path12" d="M1083.83-2177.906c0,209.548-181.73,379.42-405.91,379.42S272-1968.358,272-2177.906s181.74-379.42,405.92-379.42,405.91,169.872,405.91,379.42" transform="translate(-271.999 2557.326)" fill="#3972bc" fill-rule="evenodd"/>
  <path id="path14" d="M858.627-2479.34c71.146,37.169,120.392,108.238,150.878,176.733,34.026,76.44,55.036,167.3,26.359,248.214-23.933,67.539-76.216,123.837-142.117,158.964-73.62,39.241-157.422,49.627-241.194,47.387-92.963-2.484-178-27.709-250.057-83.829a431.1,431.1,0,0,1-79.262-81.269c51.34,154.525,205.507,266.736,387.712,266.736,224.181,0,405.91-169.873,405.91-379.421,0-160.847-107.072-298.3-258.23-353.516" transform="translate(-305.026 2505.246)" fill="#2e5ab1" fill-rule="evenodd"/>
  <path id="path16" d="M500.862-2386.932c11.653,2.742,23.238,5.78,34.984,8.15,9.972,2.01,16.056,13.623,28.386,9.685,3.006-.956,8.042,1.192,8.2-3.76.155-4.854-4.205-5.5-8.468-5.735-6.2-.333-13.2,2.573-13.654-8.628-.294-7.051-10.891-.031-16.99-4.03,9.671-8.845,18.578-16.5,33.1-14.976,5.664.6,9.823,1.764,13.464,6.166,9.3,11.255,17.945,12.074,29.822,3.4,2.728-1.988,5.6-5.669,8.725-1.807,2.9,3.57-1.723,5.527-3.952,7.809-4.7,4.811-10.223,7.617-17.48,6.932-6.321-.6-8.8,2.232-8.072,8.105.707,5.7,4.516,5.708,9.443,5.846,11.666.311,21.123-6.7,32.521-7.776,5.832-.555,8.544-6.312,2.121-10.64-2.915-1.967-5.075-3.26-3.408-6.595,1.468-2.923,4.452-3.934,7.7-3.969,7.485-.084,14.97-.026,22.243-.026,2.064,4.43-1.733,5.647-3.654,7.291-3.763,3.21-7.285,5.951-4.289,11.444,2.678,4.894,7.281,6.161,12.172,5.519,6.767-.9,4.327-6.524,4.033-10.01-.644-7.609,4.581-10.523,10.528-12.261,14.035-4.1,28.441-7.348,42.149.665,9.87,5.767,26.355,4.69,25.757,21.88-.156,4.149,14.381,2.277,6.894,11.595-4.312,5.369-10.51,2.919-15.93,3.762-.853.128-2.161.238-2.426.743-11.32,21.388-25.5,1.714-39.919,4.521,4.838-7.72,11.464-8.6,16.427-11.724,2.762-1.735,7.581-2.463,6.657-6.608-.848-3.742-4.525-6.475-8.576-6.788-8.777-.687-17.921-1.361-25.969,2.625-6.754,3.349-11.263,9.546-20.063,11.024-3.019.51-5.481,9.806-10.667,13.7-3.642,2.737-6.98,3.013-8-1.319-2.051-8.8-7.541-5.718-13.043-4.257-14.263,3.773-26,12.185-38.521,18.953-8.713,4.7-3,11.812.716,17.1,2.635,3.746,7.368,5.9,12.369,6.555,10.606,1.368,20.347,3.232,17.1,16.945-.576,2.453.744,4.881,4.189,5.178,3.611.306,6.213-1.315,7.179-4.31,3.337-10.369,11.556-14.983,22.093-17.109,7.557-1.527,5.821-7.245,5.947-11.944.587-22.679,13.838-29.467,35.487-18.235,3.823,1.985,4.722,4.673,3.689,8.216-3.206,10.944,3.73,9.789,10.886,7.835,2.919-.8,5.586-2.444,8.283-3.862,6.33-3.322,9.173-1.355,8.444,5.089-1,8.753,2.383,14.5,10.671,19.288,8.406,4.859,7.61,12.7-1.384,17.058-9.116,4.424-8.069,7.264.095,11.2,4.3,2.068,12.756,4.384,7.87,9.925-5.146,5.834-13.116-.23-19.626-1.82-5.051-1.228-7.311-4.544-3.435-9.3,2.109-2.6,5.1-5.483,1.189-8.469-3.156-2.405-5.345.882-8.022,2.052-6.605,2.887-13.055,4.1-19.381-1.6-5.58-5.031-12.762-5.638-16.751,1.271-5.125,8.881,7.87,6.32,9.312,10.32-28.924,10.4-49.9,30.8-72.63,48.861-1.008.8-2.493,1.639-2.711,2.653-4.207,19.354-23.947,24.909-37.033,36.291-5.794,5.041-7.511,10.457-7.169,17.553.155,3.175,5.46,9.261-2.277,9.717-4.673.274-12.107-2.476-11.637-8.1,1.09-13.07-8.02-11.112-15.947-10.612-13.856.868-27.614-1.78-41.605,3.945-16.458,6.746-23.338,18.842-29.281,32.94-3.9,9.257-.661,16.972,6.534,21.862,6.759,4.592,15.823,4.8,23.7.172,5.6-3.281,10.915-6.984,16.5-10.275,2.667-1.568,4.961-5.643,8.975-2.171,2.907,2.516,1.557,5.8.129,8.04-7.044,11.076-4.585,16.967,9.808,17.313,4.326.1,5.929,2.719,6.27,6.542.29,3.272,1.288,6.488,1.721,9.757,2.642,19.89,2.7,19.456,22.8,22.752,9.562,1.576,14.613-2.914,20.171-8.6,14.236-14.566,25.865-14.828,40.691-.827,7.7,7.269,17.551,6.435,24.332,2.268,9.543-5.868,15.307-2.613,19.1,4.062,7.215,12.685,15.581,20.369,32.776,18.7,9.956-.962,11.534,9.9,14.827,16.754,2.625,5.458-2.606,13.643,3.995,17.252,9.818,5.373,20.555,9.563,32.354,9.938,3.089.1,6.2.2,9.277,0,11.922-.775,23.081-.566,28.184,12.534.872,2.232,4.407,4.376,7.127,5.022,13.808,3.287,11.661,13.332,5.4,18.394-18.176,14.692-16.679,34.41-19.124,53.282-1.734,13.367-11.566,22.109-26.056,22.132-18.934.031-24.071,5.457-18.986,22.522,2.961,9.925,1.455,17.3-6.368,24.515-5.605,5.169-11.519,10.908-14.532,17.5-7.946,17.4-23.78,23.327-41.292,27.137-7.167,1.559-11.035,3.787-3.448,8.8,6.995,4.62,4.122,7.933.146,11.816-6.449,6.308-3.708,10.839,3.8,12.637,8.214,1.966,10.217,5.771,6.584,12.371-4.909,8.906-.777,14.527,6.706,19.9,3.433,2.471,9.352,5.119,6.393,10.717-2.363,4.487-7.177.891-10.837,1.392-18.768,2.6-28.306-10.9-37.466-21.366-11.091-12.68-22.067-26.955-16.571-45.961,1.509-5.2,2.536-11.865-2.582-16.48-9.656-8.725-11.948-19.2-7.118-30.245,4.247-9.718-6.21-15.108-5.855-23.527.5-11.95.074-23.935.092-35.906.032-21.025-6.676-30.777-27.795-37.307-7.263-2.24-10.537-5.089-12.242-12.264-2.441-10.316-12.22-16.777-19.085-24.635-15.242-17.441-13.053-44.1,6.856-56.169,11.825-7.168,3.563-15.578,4.228-23.254s-7.506-6.364-11.841-6.191c-16.53.656-27.427-7.423-35.917-19.079-4.866-6.681-11.267-9.728-19.29-11.609-7.087-1.657-16.427-.47-18.085-10.988-.471-3-5.614-3.105-8.135-2.108-12.274,4.85-23.279-1.427-34.629-3.264-8.731-1.414-17.66-18.56-14.6-26.7,1.573-4.168.655-6.772-1.844-10.072-9.6-12.688-20.919-24.652-21.9-41.372-.152-2.648-1.4-5.19-4.653-4.93-4.278.347-3.624,3.814-3.958,6.644-1.246,10.67,4.344,18.837,10.3,27.234,3.348,4.722,10.6,11.764,3.552,16.118-7.846,4.837-12.431-3.039-16.96-9.076-8.31-11.077-11.246-22.925-9.893-36.141.557-5.4.609-10.82-6.589-13.207-9.247-3.069-13.621-8.717-10.176-18.2,1.079-2.977.142-4.907-3.828-3.8,22.722-54.45,58.8-100.066,105.252-138.758,10.826-9.018,21.732-18.026,34.194-25.144" transform="translate(-329.64 2456.549)" fill="#d3907f" fill-rule="evenodd"/>
  <path id="path18" d="M1934.562-1461.791c-7.747,1.045-12.068-1.528-10.894-9.372,1.592-10.674-2.369-19.479-10.207-26.915-7.927-7.525-5.563-16.951-5.571-25.826-.01-6.812-.341-12.919-6.706-17.747-8.69-6.586-9.187-15.68-3.175-23.222,12.258-15.387,9.937-28.785-1.521-43.516-10.964-14.1-19.924-29.414-12.774-48.246,1.573-4.137.511-8.074-5.852-8.752-9.979-1.049-19.485-2.528-28.16-8.788-4.767-3.437-13.391-2.856-19.162.04-16,8.03-33.7,3.229-50.169,6.962a5.562,5.562,0,0,1-3.876-.394c-15.068-10.4-25.937-24.581-37.338-38.054-6.577-7.773-2.217-18.381-2.668-27.717-.18-3.628,3.8-5.436,5.217-8.221,2.241-4.411,7.875-9.132-2.175-13.526-6.9-3.026-8.363-10.147-.114-15.56,7.222-4.731,13.883-10.267,21.384-14.554,11.055-6.325,18.812-12.822,17.8-27.154-.843-11.87,13.879-15.79,21.849-15.32,23.162,1.364,43.385-9.558,65.816-10.422,16.068-.615,17.058-1.351,18.342,13.172.479,5.337,2.611,8.057,8.226,9.5,11.41,2.936,23.388,4.26,33.8,10.266,3.241,1.86,6.151,1.63,8.273-2.741,4.278-8.814,16.281-13.035,24.118-6.436,15.106,12.733,32.372,10.709,49.852,10.333,35.727,125.551,11.354,239.7-74.321,342.212" transform="translate(-1214.295 2077.184)" fill="#d3907f" fill-rule="evenodd"/>
  <path id="path20" d="M2090.756-2130.038c-25.065.514-26.539-.247-31.628-21.379-1.44-5.971-4.027-5.139-8.155-3.057-2.937,1.475-3.956,4.031-5.491,6.582-2.416,4.03-.123,12.547-6.056,11.839-6.562-.784-13.111-7.6-13.134-14.009-.053-12.281-8.521-18.142-16.884-24.683-1.677-1.308-3.293-3.129-5.245-3.61-5.108-1.254-12.093-2.945-14.926.962-3.251,4.485.232,10.492,4.625,14.084,3.918,3.206,8.852,5.367,13.452,7.781,4.032,2.122,7.539,3.862,5.25,9.442-1.915,4.714.028,11.029-7.548,12.969-5.843,1.5-10.312.567-13.079-4.846,2.483-2.86,5.957-1.089,8.672-2.095,4.994-1.855,6.174-4.128,1.436-7.861-9.595-7.574-22.771-11.051-29.249-22.257-.337-.579-2.45-.814-3.4-.451-17.75,6.843-35.742,12.7-43.948,31.934-5.023,11.795-39.423,12.158-44.858.723-3.673-7.743-5.051-17.566.568-25.021,4.738-6.284,13.788-6.329,21.7-6.072,3.9.123,7.724,1.52,11.618,2.073,3.274.465,6.009-.253,7.444-3.619,1.288-3.024.663-4.943-1.625-7.631-8.426-9.89-5.094-17.336,8.362-18.306,6.942-.5,12.311-2.849,15.054-8.367,6.487-13.048,17.509-15.975,31.5-14.11,3.572.474,9.013,2.365,10.435-2.153,1.122-3.6.283-8.473-1.5-11.962-2.605-5.084-7.079-.771-10.3.106-4.027,1.094-6.795,1.422-8.34-2.8-1.63-4.438-4.534-6.857-9.429-9.128-8.425-3.925-5.2-13.434,5.742-18.387,7.534-3.415,18.139-3.569,18.233-14.93,41.147,35.969,75.633,76.569,99.367,124.656,3.862,7.826,7.567,15.719,11.339,23.58" transform="translate(-1306.869 2370.969)" fill="#d3907f" fill-rule="evenodd"/>
  <path id="path22" d="M1960.689-2132.269c-3.592-.745-9.5,2.13-11.343-2.6-1.636-4.193,1.521-7.72,5.5-11.259,8.7-7.754-2.08-9.61-6.117-13.172-2.814-2.483-7.236-3.95-5.4-8.717a9.608,9.608,0,0,1,7.719-6.1c4.668-.814,8.538-.863,9.908,4.991,2.383,10.24,6.586,19.652,17.134,25.171,4.236,2.211,2.155,4.469.113,6.918-4.52,5.408-10.937,4.492-17.513,4.767" transform="translate(-1349.097 2301.672)" fill="#d3907f" fill-rule="evenodd"/>
  <path id="path24" d="M1887.816-2104.9a12.747,12.747,0,0,1-3.677-.655c-2.834-1.426-2.995-4.208-2.019-6.413,3.1-6.94,7.037-13.323,16.357-14,3.719-.27,7.164.572,8.643,4.089,1.8,4.3-1.156,6.847-4.587,9.062-4.63,2.986-8.539,7.113-14.718,7.919" transform="translate(-1309.572 2269.288)" fill="#d3907f" fill-rule="evenodd"/>
  <path id="path26" d="M1307.261-1985.773c-.184,4.1-4.5,5.554-6.639,8.388-2.185,2.9-6.084,3.309-9.529,1.692-1.283-.6-2.858-2.627-2.646-3.716.8-4.071,4.847-2.707,7.54-2.9,4.131-.3,5.549-7.584,11.273-3.468" transform="translate(-927.213 2176.472)" fill="#d3907f" fill-rule="evenodd"/>
  <path id="path28" d="M1244.031-1959.649c-2.656-.381-3.851-2.021-3.07-4.244.48-1.342,2.008-3.171,3.228-3.29,2.421-.244,3.685,1.674,3.832,3.893.179,2.564-1.451,3.57-3.989,3.642" transform="translate(-896.462 2163.232)" fill="#d3907f" fill-rule="evenodd"/>
  <path id="path30" d="M1182.483-526.637c-7.483-5.377-11.615-11-6.706-19.9,3.633-6.6,1.631-10.4-6.583-12.371-7.508-1.8-10.249-6.329-3.8-12.636,3.976-3.884,6.849-7.2-.146-11.817a20.375,20.375,0,0,1-2.069-1.541q-19.263-.678-38.042-2.706a30.052,30.052,0,0,1-1.135,5.758c-5.5,19.005,5.481,33.28,16.571,45.96,9.161,10.461,18.7,23.961,37.466,21.366,3.66-.5,8.474,3.1,10.837-1.391,2.96-5.6-2.959-8.247-6.393-10.718" transform="translate(-820.276 1241.914)" fill="#c37474" fill-rule="evenodd"/>
  <path id="path32" d="M2307.089-1762.178c-17.479.376-34.747,2.4-49.853-10.333-5.245-4.416-12.339-3.968-17.754-.562,18.92,61.6,25.363,127.876,3.857,188.567a270.72,270.72,0,0,1-46.958,81.933,22.473,22.473,0,0,0,3.009,2.747c6.364,4.827,6.7,10.935,6.7,17.747.011,8.876-2.354,18.3,5.573,25.826,7.837,7.436,11.8,16.241,10.206,26.916-1.175,7.844,5.283,12.051,13.025,11.011,85.675-102.516,107.916-218.3,72.189-343.851" transform="translate(-1512.501 2035.359)" fill="#c37474" fill-rule="evenodd"/>
  <path id="path34" d="M2224.274-2153.618c-23.734-48.087-58.22-88.687-99.367-124.656-.095,11.36-10.7,11.515-18.233,14.93a25.775,25.775,0,0,0-4.572,2.658q9.958,13.034,18.793,26.752c2.842-1.383,6.05-3.207,8.105.8,1.787,3.489,2.626,8.362,1.5,11.962a4.5,4.5,0,0,1-.792,1.48,491.1,491.1,0,0,1,22.967,43.621c.53.461,1.057.918,1.587,1.33,8.363,6.541,16.831,12.4,16.883,24.683.023,6.409,6.573,13.225,13.135,14.009,5.933.708,3.64-7.809,6.056-11.839,1.535-2.551,2.554-5.107,5.491-6.582,4.128-2.082,6.715-2.914,8.155,3.057,5.089,21.132,6.563,21.893,31.628,21.379-3.771-7.861-7.477-15.754-11.339-23.58" transform="translate(-1451.726 2370.969)" fill="#c37474" fill-rule="evenodd"/>
  <path id="path36" d="M488.678-2187.979c5.647-15.839,15.383-30.742,25.831-44.18a257.314,257.314,0,0,1,42.91-43.117,176.267,176.267,0,0,1,24.053-16.112c3.322-1.834,6.671-3.633,10.1-5.3,3.224-1.572,7.591,1.431,4.853,4.642a38,38,0,0,1-4.52,4.991c-3.311,3.4-6.717,6.736-9.95,10.2q-10.511,11.282-20.98,22.584c-13.134,14.191-25.537,28.975-38.884,42.988-6.434,6.754-12.951,13.406-19.735,19.856-2.5,2.378-5.073,4.721-7.8,6.873-2.693,2.127-7.009-.066-5.876-3.428" transform="translate(-411.556 2383.554)" fill="#e4c4ac"/>
  <path id="path38" d="M413.181-1904.07c-.834,0,1.214-8.765,1.514-9.549a38.762,38.762,0,0,1,7.387-11.612c2.221-2.5,14.541-13.935,15.3-4.3.555,7.056-4.275,15.515-8.773,20.821a28.975,28.975,0,0,1-9.264,7.671c-2.6,1.231-5.823-.287-6.165-3.034h0" transform="translate(-362.88 2140.609)" fill="#e4c4ac"/>
</svg>
