<!DOCTYPE svg PUBLIC "-//W3C//DTD SVG 1.0//EN" "http://www.w3.org/TR/2001/REC-SVG-20010904/DTD/svg10.dtd"[]><svg xmlns="http://www.w3.org/2000/svg" xmlns:xlink="http://www.w3.org/1999/xlink" id="body_1" width="150" height="112" viewBox="0 0 1024 768"><g transform="matrix(1 0 0 1 0 0)"><g transform="matrix(1.536 0 0 1.536 128.00003 -0)"><path d="M284 501C 189.33336 501 95.16671 501 1.000051 501C 1.000034 334.3334 1.000034 167.6668 1.000017 1.00014C 167.66656 1.000093 334.33313 1.000093 500.99976 1.000047C 500.99985 167.66652 500.99985 334.33304 500.99994 500.9998C 428.83334 501 356.66666 501 284 501zM82.05232 231.89601C 82.05232 231.89601 82.12571 231.83191 81.936966 232.55428C 84.5975 238.79153 90.10468 239.86119 96.18504 240.94409C 97.9657 242.34564 99.746346 243.74721 101.42476 245.89969C 100.52712 249.88873 103.07849 251.24483 106.112305 252.94287C 105.53134 259.12247 109.98078 258.89777 114.078476 259.90683C 111.594925 268.96033 107.137566 272.21872 100.00386 269.31693C 97.75869 265.2648 95.51351 261.21265 93.16476 256.409C 91.136826 249.06963 78.90867 245.55264 69.56253 247.53029C 63.39358 248.83565 58.963226 252.08298 57.20449 258.30298C 55.38639 264.73294 56.72571 270.3679 62.21766 275.4941C 63.934383 277.9676 65.65111 280.4411 67.47991 283.37405C 67.63316 283.67 67.8666 283.87445 68.02405 283.91452C 68.02405 283.91452 68.11043 283.76544 68.09347 284.47906C 71.62853 290.96036 77.711044 293.99396 84.32586 296.01813C 99.254456 300.58646 114.45087 300.83014 129.72993 298.10492C 139.02931 296.4463 147.81194 293.42908 154.73099 286.64594C 162.6173 278.91446 163.08983 267.9382 155.7768 260.3659C 154.44409 258.20078 153.11137 256.03568 152.37932 253.4582C 154.19801 252.685 156.09795 252.05998 157.82227 251.11461C 169.32074 244.81036 171.9241 229.31789 162.80756 219.31764C 160.69048 216.26709 158.5734 213.21652 156.1487 209.50003C 155.75833 209.31754 155.36797 209.13504 155.03433 208.95618C 155.03433 208.95618 155.04935 209.01103 155.30261 208.31978C 150.96976 201.64806 144.3096 198.35382 137.0929 196.00397C 124.29496 191.83679 111.178474 192.24507 98.034744 193.66579C 90.66419 194.46245 83.67552 196.41594 77.63928 201.00102C 69.75848 206.98723 68.75344 219.56297 76.2925 223.75348C 77.94921 226.12311 79.60592 228.49274 81.31264 231.38882C 81.584526 231.57822 81.856415 231.76761 82.05232 231.89601zM176.41519 245.06487C 176.179 248.60492 178.12907 250.53004 181.13579 252.39925C 181.06233 257.00922 184.1183 258.60968 187.91771 258.66528C 199.3948 258.83328 210.88268 258.90695 222.35097 258.53873C 224.90689 258.45667 227.90088 256.9564 229.82413 255.17226C 234.77457 250.5799 233.90588 244.76706 228.1876 241.19576C 228.46068 237.75366 226.60846 235.86351 223.58449 234.13492C 223.43398 229.45168 220.62837 227.83977 216.36935 227.84607C 205.2453 227.86255 194.1164 227.6821 183.00073 227.98949C 180.38899 228.06172 177.36224 229.1778 175.32437 230.80995C 170.12582 234.97354 170.83716 241.80656 176.41519 245.06487zM322.99164 252.54228C 322.91357 257.58313 326.44647 258.65274 330.31738 258.70667C 341.27988 258.85938 352.25107 258.9338 363.20694 258.62216C 365.8347 258.5474 368.8679 257.42468 370.93277 255.79396C 376.62613 251.29774 376.00952 244.8244 369.86157 241.27725C 369.93094 237.84612 368.13828 235.82468 365.00113 234.06305C 365.00427 229.56082 362.31006 227.89903 358.27554 227.88469C 346.8165 227.84393 335.35574 227.77888 323.89856 227.93553C 318.6865 228.00679 315.2232 230.77715 313.71176 235.86707C 312.4906 239.97942 313.1048 243.12901 317.9611 244.99197C 317.46436 248.89478 319.91614 250.57222 322.99164 252.54228zM445.39236 205.39514C 443.7361 203.23947 442.07986 201.0838 440.4215 198.23204C 440.00192 192.99248 436.66904 191.59515 432.1105 192.16533C 428.3402 192.63689 424.6044 193.39111 420.85858 194.04996C 413.04092 195.42499 405.19583 196.6742 397.4359 198.32304C 395.78436 198.674 393.46115 200.33586 393.22052 201.70535C 392.9301 203.35783 394.39764 205.41646 395.3703 207.15002C 395.81393 207.94073 396.8954 208.37358 397.75806 209.72786C 398.92322 211.5402 400.08838 213.35255 401.1021 215.92674C 396.91437 230.89093 392.3754 245.76926 388.68652 260.85544C 386.83365 268.43317 383.7129 273.8151 375.81094 276.08438C 373.99707 276.60526 372.8603 279.48392 371.4119 281.2775C 373.29117 282.56876 375.1704 283.86002 376.95612 285.8146C 375.33612 290.47983 378.25992 291.60385 381.70114 292.84177C 380.04562 297.63046 382.94553 298.9287 386.74826 298.95175C 401.7071 299.04245 416.67148 299.14496 431.6219 298.7688C 434.08972 298.7067 436.49786 296.2727 438.9336 294.93488C 437.3409 292.91058 435.74826 290.8863 434.1488 288.11414C 433.07022 286.1917 431.99164 284.26926 431.25037 281.64328C 433.06006 275.4323 434.90363 269.23096 436.67273 263.00845C 440.93765 248.00778 445.23904 233.01683 449.37955 217.9817C 451.24432 211.21011 450.38275 208.9478 445.39236 205.39514zM259.72342 216.15733C 255.42561 231.34587 250.8351 246.46027 246.96011 261.75592C 245.16661 268.83533 242.00455 273.66336 234.76857 275.91714C 232.80412 276.52902 231.56699 279.47598 229.99603 281.35123C 231.88081 282.6229 233.7656 283.89456 235.29309 286.0021C 234.03229 290.41702 236.72864 291.63284 240.08003 292.96576C 239.08649 297.1832 241.18274 298.9635 245.08238 298.9741C 260.07233 299.0147 275.06696 299.14603 290.04825 298.77606C 292.52927 298.71478 296.08377 296.90784 297.14465 294.8685C 298.8484 291.5933 295.03836 290.3204 292.81937 288.04453C 291.7566 286.2284 290.6938 284.41226 289.86258 281.88513C 292.06522 274.0419 294.27176 266.19977 296.4697 258.3552C 300.41733 244.26573 304.43262 230.19453 308.2588 216.07213C 309.37045 211.96904 309.31992 207.982 303.9947 205.69089C 304.0058 202.17589 302.18488 200.028 298.9498 198.17819C 298.57864 193.57431 295.77487 191.48277 291.5232 192.1505C 279.37473 194.05841 267.2383 196.1002 255.18411 198.52222C 250.52473 199.4584 249.8196 203.40329 253.24522 206.70287C 254.07558 207.50264 255.09889 208.10211 256.09753 209.51308C 257.4224 211.48402 258.74722 213.45497 259.72342 216.15733z" stroke="none" fill="#FFFFFF" fill-rule="nonzero" /><path d="M67.36783 282.91458C 65.65111 280.4411 63.934383 277.9676 62.076675 274.7335C 60.361538 262.42883 65.98833 254.69586 77.34922 254.31432C 82.61779 254.13739 87.95969 256.1439 93.26834 257.16052C 95.51351 261.21265 97.75869 265.2648 99.87662 269.98892C 98.605995 272.7681 97.462616 274.87527 95.78342 277.96997C 101.32588 277.96997 106.01732 278.78586 110.2791 277.78046C 116.820244 276.23737 118.85036 270.39185 119.667305 264.42285C 120.25528 260.1268 119.33166 256.13876 114.60371 253.72864C 111.631714 253.03726 108.918434 252.5995 106.20516 252.16176C 103.07849 251.24483 100.52712 249.88873 101.67462 245.25652C 103.49768 240.82596 106.590996 239.60226 110.33787 240.03789C 121.993675 241.39304 128.45543 229.99973 126.880585 220.53853C 126.46865 218.06374 123.827835 215.95996 121.94208 213.42471C 118.673004 212.86746 115.67252 212.57129 111.94755 212.2036C 114.227394 223.06396 109.44574 229.14244 100.97832 233.03801C 101.0236 233.04901 101.06251 232.96434 100.59262 232.92133C 94.12373 232.52953 88.12472 232.18073 82.12571 231.83191C 82.12571 231.83191 82.05232 231.89601 82.21445 231.63312C 82.005264 231.20094 81.63395 231.03165 81.26263 230.86237C 79.60592 228.49274 77.94921 226.12311 76.206474 223.02887C 76.59068 211.62624 82.47302 204.82504 95.279686 202.19337C 115.83575 197.96924 136.15523 197.75467 155.04935 209.01103C 155.04935 209.01103 155.03433 208.95618 155.0993 209.29858C 155.59497 209.81598 156.02563 209.99097 156.45631 210.16597C 158.5734 213.21652 160.69048 216.26709 162.94281 220.03198C 165.28105 231.60683 160.43181 240.95258 150.39005 245.3884C 148.80937 246.08662 147.39793 247.16798 145.58801 248.26659C 148.13173 250.56923 149.9552 252.2199 151.77867 253.87054C 153.11137 256.03568 154.44409 258.20078 155.88959 261.12982C 156.9275 270.19897 154.06897 277.04483 147.34868 281.84973C 143.62694 284.51074 139.4581 286.98703 135.11378 288.26288C 112.29577 294.96423 89.76827 295.29663 68.11043 283.76544C 68.11043 283.76544 68.02405 283.91452 68.16465 283.67822C 67.992775 283.2661 67.680305 283.09036 67.36783 282.91458z" stroke="none" fill="#020203" fill-rule="nonzero" /><path d="M289.631 282.59613C 290.6938 284.41226 291.7566 286.2284 292.5009 288.63046C 289.139 290.14435 286.11282 291.8032 283.04926 291.87543C 268.79633 292.21155 254.53308 292.1085 240.27353 292.16263C 236.72864 291.63284 234.03229 290.41702 235.70639 285.46466C 238.45549 283.72638 240.70192 282.28418 243.14717 281.379C 247.23808 279.86462 249.578 277.14307 250.72885 272.94434C 255.10132 256.99188 259.5194 241.04974 264.1761 225.17879C 265.55362 220.48386 264.29898 217.47537 260.07208 215.42592C 258.74722 213.45497 257.4224 211.48402 256.30182 208.9106C 257.93234 207.29451 259.2445 205.64827 260.80286 205.36722C 273.49332 203.07838 286.22977 201.04482 298.95224 198.93356C 302.18488 200.028 304.0058 202.17589 303.95554 206.45619C 297.92783 228.63174 292.0677 250.07936 285.85562 271.42456C 284.40048 276.4245 285.63483 279.7961 289.631 282.59613z" stroke="none" fill="#010202" fill-rule="nonzero" /><path d="M440.4236 198.92813C 442.07986 201.0838 443.7361 203.23947 445.3537 206.15247C 444.71106 209.6576 444.2476 212.44528 443.48044 215.14677C 438.09515 234.11084 432.66098 253.06108 427.209 272.00613C 425.94812 276.38757 426.41266 280.069 430.91306 282.34683C 431.99164 284.26926 433.07022 286.1917 433.88916 288.7624C 430.52765 290.27393 427.4411 291.81363 424.3213 291.88434C 410.18784 292.20468 396.045 292.11032 381.90555 292.16525C 378.25992 291.60385 375.33612 290.47983 377.3233 285.3239C 379.4306 283.89633 381.07416 282.63434 382.92896 282.08368C 388.4342 280.44922 391.26007 276.89166 392.7176 271.3439C 396.7213 256.10468 401.0522 240.94817 405.48727 225.82744C 406.93262 220.8997 406.04443 217.38034 401.25354 215.1649C 400.08838 213.35255 398.92322 211.5402 397.88513 209.01215C 399.43314 207.28455 400.74008 205.64067 402.293 205.36055C 414.97726 203.07256 427.7074 201.03903 440.4236 198.92813z" stroke="none" fill="#010202" fill-rule="nonzero" /><path d="M364.9837 234.83435C 368.13828 235.82468 369.93094 237.84612 369.77097 241.95566C 366.88284 249.62318 364.06317 251.66592 356.52112 251.72032C 345.36465 251.80077 334.20715 251.73712 323.0501 251.73483C 319.91614 250.57222 317.46436 248.89478 318.0609 244.27457C 320.87112 236.76598 323.48816 234.88297 330.80594 234.84258C 342.19818 234.7797 353.5911 234.83128 364.9837 234.83435z" stroke="none" fill="#050106" fill-rule="nonzero" /><path d="M223.55443 234.85098C 226.60846 235.86351 228.46068 237.75366 228.12686 241.93938C 225.48549 249.48317 222.70795 251.64772 215.53918 251.70204C 204.10724 251.78871 192.67351 251.64409 181.24054 251.59726C 178.12907 250.53004 176.179 248.60492 176.59346 244.3482C 178.97023 237.20229 181.74277 234.94005 188.30606 234.87668C 200.05449 234.76321 211.80487 234.84866 223.55443 234.85098z" stroke="none" fill="#050106" fill-rule="nonzero" /><path d="M68.101944 284.12225C 89.76827 295.29663 112.29577 294.96423 135.11378 288.26288C 139.4581 286.98703 143.62694 284.51074 147.34868 281.84973C 154.06897 277.04483 156.9275 270.19897 156.03534 261.4475C 163.08983 267.9382 162.6173 278.91446 154.73099 286.64594C 147.81194 293.42908 139.02931 296.4463 129.72993 298.10492C 114.45087 300.83014 99.254456 300.58646 84.32586 296.01813C 77.711044 293.99396 71.62853 290.96036 68.101944 284.12225z" stroke="none" fill="#F907F9" fill-rule="nonzero" /><path d="M155.17598 208.6654C 136.15523 197.75467 115.83575 197.96924 95.279686 202.19337C 82.47302 204.82504 76.59068 211.62624 76.05898 222.72107C 68.75344 219.56297 69.75848 206.98723 77.63928 201.00102C 83.67552 196.41594 90.66419 194.46245 98.034744 193.66579C 111.178474 192.24507 124.29496 191.83679 137.0929 196.00397C 144.3096 198.35382 150.96976 201.64806 155.17598 208.6654z" stroke="none" fill="#05FAFA" fill-rule="nonzero" /><path d="M401.17783 215.54582C 406.04443 217.38034 406.93262 220.8997 405.48727 225.82744C 401.0522 240.94817 396.7213 256.10468 392.7176 271.3439C 391.26007 276.89166 388.4342 280.44922 382.92896 282.08368C 381.07416 282.63434 379.4306 283.89633 377.37006 284.99225C 375.1704 283.86002 373.29117 282.56876 371.41193 281.27753C 372.8603 279.48392 373.99707 276.60526 375.81094 276.08438C 383.7129 273.8151 386.83365 268.43317 388.68652 260.85544C 392.3754 245.76926 396.91437 230.89093 401.17783 215.54582z" stroke="none" fill="#05FAFA" fill-rule="nonzero" /><path d="M259.89777 215.79163C 264.29898 217.47537 265.55362 220.48386 264.1761 225.17879C 259.5194 241.04974 255.10132 256.99188 250.72885 272.94434C 249.578 277.14307 247.23808 279.86462 243.14717 281.379C 240.70192 282.28418 238.45549 283.72638 235.88503 285.0467C 233.7656 283.89456 231.88081 282.6229 229.99603 281.35123C 231.56699 279.47598 232.80412 276.52902 234.76857 275.91714C 242.00455 273.66336 245.16661 268.83533 246.96011 261.75592C 250.8351 246.46027 255.42561 231.34587 259.89777 215.79163z" stroke="none" fill="#05FAFA" fill-rule="nonzero" /><path d="M289.7468 282.24063C 285.63483 279.7961 284.40048 276.4245 285.85562 271.42456C 292.0677 250.07936 297.92783 228.63174 304.0251 206.79926C 309.31992 207.982 309.37045 211.96904 308.2588 216.07213C 304.43262 230.19453 300.41733 244.26573 296.4697 258.3552C 294.27176 266.19977 292.06522 274.0419 289.7468 282.24063z" stroke="none" fill="#F907F9" fill-rule="nonzero" /><path d="M431.08173 281.99506C 426.41266 280.069 425.94812 276.38757 427.209 272.00613C 432.66098 253.06108 438.09515 234.11084 443.48044 215.14677C 444.2476 212.44528 444.71106 209.6576 445.49066 206.54109C 450.38275 208.9478 451.24432 211.21011 449.37955 217.9817C 445.23904 233.01683 440.93765 248.00778 436.67273 263.00845C 434.90363 269.23096 433.06006 275.4323 431.08173 281.99506z" stroke="none" fill="#F907F9" fill-rule="nonzero" /><path d="M381.80334 292.5035C 396.045 292.11032 410.18784 292.20468 424.3213 291.88434C 427.4411 291.81363 430.52765 290.27393 433.89252 289.13635C 435.74826 290.8863 437.3409 292.91058 438.9336 294.93488C 436.49786 296.2727 434.08972 298.7067 431.6219 298.7688C 416.67148 299.14496 401.7071 299.04245 386.74826 298.95175C 382.94553 298.9287 380.04562 297.63046 381.80334 292.5035z" stroke="none" fill="#FE02FE" fill-rule="nonzero" /><path d="M240.17679 292.5642C 254.53308 292.1085 268.79633 292.21155 283.04926 291.87543C 286.11282 291.8032 289.139 290.14435 292.47574 289.00323C 295.03836 290.3204 298.8484 291.5933 297.14465 294.8685C 296.08377 296.90784 292.52927 298.71478 290.04825 298.77606C 275.06696 299.14603 260.07233 299.0147 245.08238 298.9741C 241.18274 298.9635 239.08649 297.1832 240.17679 292.5642z" stroke="none" fill="#FE02FE" fill-rule="nonzero" /><path d="M323.02087 252.13855C 334.20715 251.73712 345.36465 251.80077 356.52112 251.72032C 364.06317 251.66592 366.88284 249.62318 369.84796 242.32419C 376.00952 244.8244 376.62613 251.29774 370.93277 255.79396C 368.8679 257.42468 365.8347 258.5474 363.20694 258.62216C 352.25107 258.9338 341.27988 258.85938 330.31738 258.70667C 326.44647 258.65274 322.91357 257.58313 323.02087 252.13855z" stroke="none" fill="#F907F9" fill-rule="nonzero" /><path d="M364.99243 234.4487C 353.5911 234.83128 342.19818 234.7797 330.80594 234.84258C 323.48816 234.88297 320.87112 236.76598 318.0174 243.89801C 313.1048 243.12901 312.4906 239.97942 313.71176 235.86707C 315.2232 230.77715 318.6865 228.00679 323.89856 227.93553C 335.35574 227.77888 346.8165 227.84393 358.27554 227.88469C 362.31006 227.89903 365.00427 229.56082 364.99243 234.4487z" stroke="none" fill="#05FAFA" fill-rule="nonzero" /><path d="M181.18817 251.99826C 192.67351 251.64409 204.10724 251.78871 215.53918 251.70204C 222.70795 251.64772 225.48549 249.48317 228.19441 242.33385C 233.90588 244.76706 234.77457 250.5799 229.82413 255.17226C 227.90088 256.9564 224.90689 258.45667 222.35097 258.53873C 210.88268 258.90695 199.3948 258.83328 187.91771 258.66528C 184.1183 258.60968 181.06233 257.00922 181.18817 251.99826z" stroke="none" fill="#F907F9" fill-rule="nonzero" /><path d="M223.56946 234.49295C 211.80487 234.84866 200.05449 234.76321 188.30606 234.87668C 181.74277 234.94005 178.97023 237.20229 176.54956 243.9639C 170.83716 241.80656 170.12582 234.97354 175.32437 230.80995C 177.36224 229.1778 180.38899 228.06172 183.00073 227.98949C 194.1164 227.6821 205.2453 227.86255 216.36935 227.84607C 220.62837 227.83977 223.43398 229.45168 223.56946 234.49295z" stroke="none" fill="#05FAFA" fill-rule="nonzero" /><path d="M440.42255 198.5801C 427.7074 201.03903 414.97726 203.07256 402.293 205.36055C 400.74008 205.64067 399.43314 207.28455 397.8499 208.63258C 396.8954 208.37358 395.81393 207.94073 395.3703 207.15002C 394.39764 205.41646 392.9301 203.35783 393.22052 201.70535C 393.46115 200.33586 395.78436 198.674 397.4359 198.32304C 405.19583 196.6742 413.04092 195.42499 420.85858 194.04996C 424.6044 193.39111 428.3402 192.63689 432.1105 192.16533C 436.66904 191.59515 440.00192 192.99248 440.42255 198.5801z" stroke="none" fill="#05FAFA" fill-rule="nonzero" /><path d="M298.95102 198.55588C 286.22977 201.04482 273.49332 203.07838 260.80286 205.36722C 259.2445 205.64827 257.93234 207.29451 256.26978 208.5509C 255.09889 208.10211 254.07558 207.50264 253.24522 206.70287C 249.8196 203.40329 250.52473 199.4584 255.18411 198.52222C 267.2383 196.1002 279.37473 194.05841 291.5232 192.1505C 295.77487 191.48277 298.57864 193.57431 298.95102 198.55588z" stroke="none" fill="#05FAFA" fill-rule="nonzero" /><path d="M93.21655 256.78476C 87.95969 256.1439 82.61779 254.13739 77.34922 254.31432C 65.98833 254.69586 60.361538 262.42883 61.920708 274.41705C 56.72571 270.3679 55.38639 264.73294 57.20449 258.30298C 58.963226 252.08298 63.39358 248.83565 69.56253 247.53029C 78.90867 245.55264 91.136826 249.06963 93.21655 256.78476z" stroke="none" fill="#05FAFA" fill-rule="nonzero" /><path d="M122.21066 213.6858C 123.827835 215.95996 126.46865 218.06374 126.880585 220.53853C 128.45543 229.99973 121.993675 241.39304 110.33787 240.03789C 106.590996 239.60226 103.49768 240.82596 101.72574 244.88104C 99.746346 243.74721 97.9657 242.34564 96.209885 240.27005C 97.84398 237.38544 99.45324 235.17488 101.0625 232.96434C 101.06251 232.96434 101.0236 233.04901 101.43398 233.0726C 107.2681 232.81909 113.10322 233.96915 117.36682 228.555C 119.01536 225.35275 120.3856 222.29749 121.883484 218.79433C 122.07765 216.7929 122.14416 215.23935 122.21066 213.6858z" stroke="none" fill="#05FAFA" fill-rule="nonzero" /><path d="M152.079 253.66437C 149.9552 252.2199 148.13173 250.56923 145.58801 248.26659C 147.39793 247.16798 148.80937 246.08662 150.39005 245.3884C 160.43181 240.95258 165.28105 231.60683 163.09427 220.34215C 171.9241 229.31789 169.32074 244.81036 157.82227 251.11461C 156.09795 252.05998 154.19801 252.685 152.079 253.66437z" stroke="none" fill="#F907F9" fill-rule="nonzero" /><path d="M114.86243 253.98227C 119.33166 256.13876 120.25528 260.1268 119.667305 264.42285C 118.85036 270.39185 116.820244 276.23737 110.2791 277.78046C 106.01732 278.78586 101.32588 277.96997 95.78342 277.96997C 97.462616 274.87527 98.605995 272.7681 99.94356 270.3793C 107.137566 272.21872 111.594925 268.96033 114.27823 259.22635C 114.60613 257.02466 114.734276 255.50346 114.86243 253.98227z" stroke="none" fill="#05FAFA" fill-rule="nonzero" /><path d="M100.59262 232.92133C 99.45324 235.17488 97.84398 237.38544 96.10155 239.93983C 90.10468 239.86119 84.5975 238.79153 82.03134 232.19308C 88.12472 232.18073 94.12373 232.52953 100.59262 232.92133z" stroke="none" fill="#F907F9" fill-rule="nonzero" /><path d="M114.6037 253.72864C 114.734276 255.50346 114.60613 257.02466 114.258995 258.85785C 109.98078 258.89777 105.53134 259.12247 106.15874 252.5523C 108.918434 252.5995 111.631714 253.03726 114.6037 253.72864z" stroke="none" fill="#F907F9" fill-rule="nonzero" /><path d="M81.28763 231.1256C 81.63395 231.03165 82.005264 231.20094 82.25244 231.66364C 81.856415 231.76761 81.584526 231.57822 81.28763 231.1256z" stroke="none" fill="#F907F9" fill-rule="nonzero" /><path d="M156.3025 209.83301C 156.02563 209.99097 155.59497 209.81598 155.07094 209.29677C 155.36797 209.13504 155.75833 209.31754 156.3025 209.83301z" stroke="none" fill="#05FAFA" fill-rule="nonzero" /><path d="M67.423874 283.14432C 67.680305 283.09036 67.992775 283.2661 68.24274 283.71466C 67.8666 283.87445 67.63316 283.67 67.423874 283.14432z" stroke="none" fill="#F907F9" fill-rule="nonzero" /><path d="M117.088524 228.70197C 113.10322 233.96915 107.2681 232.81909 101.3887 233.06158C 109.44574 229.14244 114.227394 223.06396 111.94755 212.2036C 115.67252 212.57129 118.673004 212.86746 121.94208 213.42471C 122.14416 215.23935 122.07765 216.7929 121.49707 218.78928C 119.72439 219.49356 118.465775 219.75499 117.088524 220.04106C 117.088524 223.11664 117.088524 225.9093 117.088524 228.70197z" stroke="none" fill="#F907F9" fill-rule="nonzero" /><path d="M117.36682 228.555C 117.088524 225.9093 117.088524 223.11664 117.088524 220.04106C 118.465775 219.75499 119.72439 219.49356 121.36942 219.23718C 120.3856 222.29749 119.01536 225.35275 117.36682 228.555z" stroke="none" fill="#FFFFFF" fill-rule="nonzero" /></g></g></svg>